<svg xmlns="http://www.w3.org/2000/svg" width="2500" height="1000" fill="none"><rect width="2500" height="1000" fill="#000" rx="100"/><path fill="#fff" d="M516.37 412.63h44.96V536h26.14V412.63h44.95v-22.08H516.37v22.08zm153 59.45c0-15.77 9.8-24.86 23.58-24.86 13.5 0 21.45 8.6 21.45 23.3V536h25.7v-69.46c0-26.35-14.9-41.05-37.56-41.05-16.76 0-27.42 7.6-32.46 19.96h-1.28v-54.9h-25.14V536h25.71v-63.92zM756.32 536h25.7V426.9h-25.7V536zm12.92-124.57c8.17 0 14.85-6.25 14.85-13.92 0-7.75-6.68-14-14.85-14-8.24 0-14.91 6.25-14.91 14 0 7.67 6.67 13.92 14.91 13.92zm54.93 60.65c0-15.77 9.52-24.86 23.09-24.86 13.28 0 21.23 8.74 21.23 23.3V536h25.71v-69.46c.07-26.14-14.84-41.05-37.35-41.05-16.34 0-27.56 7.81-32.53 19.96h-1.28V426.9h-24.58V536h25.71v-63.92zM910.34 536h25.7v-36.65l9.38-10.01L978.8 536h30.76l-44.75-62 42.26-47.1h-30.04l-39.2 43.83h-1.78v-80.19h-25.71V536zm144.61 0h26.35v-49.15h27.84c33.6 0 51.64-20.17 51.64-48.15 0-27.77-17.83-48.16-51.28-48.16h-54.55V536zm26.35-70.81v-52.63h24.15c19.74 0 28.48 10.66 28.48 26.14s-8.74 26.49-28.34 26.49h-24.29zm91.23 70.81h25.71v-64.13c0-13.85 10.44-23.65 24.57-23.65 4.33 0 9.73.78 11.93 1.49v-23.65a61.68 61.68 0 0 0-9.23-.71c-12.5 0-22.94 7.1-26.92 19.74h-1.13v-18.18h-24.93V536zm112.39 2.13c31.96 0 52.27-22.51 52.27-56.25 0-33.8-20.31-56.4-52.27-56.4-31.96 0-52.28 22.6-52.28 56.4 0 33.74 20.32 56.25 52.28 56.25zm.14-20.6c-17.69 0-26.35-15.76-26.35-35.72s8.66-35.94 26.35-35.94c17.4 0 26.06 15.98 26.06 35.94 0 19.96-8.66 35.72-26.06 35.72zm111.54 20.6c27.41 0 44.88-16.26 46.73-39.42h-24.57c-2.21 11.72-10.66 18.47-21.95 18.47-16.05 0-26.42-13.42-26.42-35.72 0-22.02 10.58-35.23 26.42-35.23 12.36 0 19.96 7.95 21.95 18.46h24.57c-1.78-23.65-20.24-39.2-46.88-39.2-31.96 0-52.13 23.08-52.13 56.4 0 33.02 19.68 56.24 52.28 56.24zm106.14 0c25.42 0 42.89-12.43 47.44-31.4l-24.01-2.69c-3.48 9.23-12 14.06-23.08 14.06-16.62 0-27.63-10.94-27.84-29.61h75.99v-7.89c0-38.28-23.01-55.11-49.85-55.11-31.25 0-51.64 22.94-51.64 56.6 0 34.24 20.1 56.04 52.99 56.04zm-27.42-66.97c.78-13.92 11.08-25.64 26.42-25.64 14.77 0 24.72 10.8 24.86 25.64h-51.28zm128.16 66.76c18.75 0 27.2-11.15 31.25-19.1h1.56V536h25.28V390.55h-25.78v54.4h-1.06c-3.91-7.88-11.93-19.46-31.18-19.46-25.21 0-45.03 19.74-45.03 56.1 0 35.94 19.25 56.33 44.96 56.33zm7.17-21.1c-16.97 0-25.92-14.91-25.92-35.37 0-20.3 8.81-34.87 25.92-34.87 16.55 0 25.64 13.71 25.64 34.87 0 21.17-9.23 35.37-25.64 35.37zm137.85-26.7c0 16.62-11.86 24.86-23.22 24.86-12.36 0-20.6-8.74-20.6-22.59v-65.48h-25.71v69.46c0 26.2 14.92 41.05 36.37 41.05 16.33 0 27.84-8.6 32.81-20.8h1.13V536h24.93V426.9h-25.71v63.22zm42.15 45.88h25.71v-64.13c0-13.85 10.44-23.65 24.58-23.65 4.33 0 9.73.78 11.93 1.49v-23.65a61.82 61.82 0 0 0-9.24-.71c-12.5 0-22.94 7.1-26.91 19.74h-1.14v-18.18h-24.93V536zm98.54 2.2c17.12 0 27.35-8.02 32.03-17.19h.86V536h24.71v-73.01c0-28.84-23.51-37.5-44.32-37.5-22.94 0-40.55 10.23-46.23 30.11l24 3.41c2.56-7.46 9.8-13.85 22.38-13.85 11.93 0 18.46 6.11 18.46 16.83v.43c0 7.39-7.74 7.74-26.99 9.8-21.16 2.27-41.4 8.6-41.4 33.17 0 21.45 15.69 32.81 36.5 32.81zm6.68-18.89c-10.73 0-18.4-4.9-18.4-14.35 0-9.87 8.6-13.99 20.1-15.62 6.75-.93 20.24-2.63 23.58-5.33v12.86c0 12.14-9.8 22.44-25.28 22.44zm92.48-128.76h-25.71V536h25.71V390.55zM1045.34 635h4.39v-12.69h14.5V635h4.41v-29.1h-4.41v12.65h-14.5v-12.64h-4.39V635zm36.54.44c6.15 0 10.17-4.5 10.17-11.25 0-6.79-4.02-11.3-10.17-11.3s-10.17 4.51-10.17 11.3c0 6.75 4.02 11.25 10.17 11.25zm.01-3.56c-4.02 0-5.89-3.51-5.89-7.7 0-4.18 1.87-7.73 5.89-7.73 3.99 0 5.87 3.55 5.87 7.73 0 4.19-1.88 7.7-5.87 7.7zm26.72-5.93a5.14 5.14 0 0 1-5.13 5.47c-2.63 0-4.44-1.9-4.44-4.87v-13.37h-4.25v13.88c0 5.41 2.97 8.22 7.16 8.22 3.28 0 5.51-1.73 6.52-4.06h.22V635h4.18v-21.82h-4.26v12.77zm16.14 9.48c3.97 0 5.54-2.43 6.3-3.82h.36V635h4.15v-29.1h-4.25v10.82h-.26c-.76-1.35-2.21-3.82-6.28-3.82-5.27 0-9.14 4.16-9.14 11.23 0 7.06 3.82 11.3 9.12 11.3zm.93-3.63c-3.79 0-5.76-3.33-5.76-7.7 0-4.34 1.93-7.6 5.76-7.6 3.71 0 5.7 3.03 5.7 7.6 0 4.58-2.03 7.7-5.7 7.7zm13.94 3.2h4.24v-21.82h-4.24V635zm2.14-25.18c1.46 0 2.69-1.14 2.69-2.53 0-1.4-1.23-2.55-2.69-2.55a2.62 2.62 0 0 0-2.68 2.55c0 1.39 1.2 2.53 2.68 2.53zm10.06 12.23c0-3.48 2.14-5.47 5.09-5.47 2.88 0 4.63 1.89 4.63 5.05V635h4.25v-13.88c0-5.4-2.97-8.22-7.43-8.22-3.28 0-5.43 1.52-6.44 3.83h-.27v-3.55h-4.07V635h4.24v-12.96zm17.66 12.95h4.25v-21.82h-4.25V635zm2.15-25.18c1.46 0 2.68-1.14 2.68-2.53 0-1.4-1.22-2.55-2.68-2.55-1.48 0-2.69 1.16-2.69 2.55s1.21 2.53 2.69 2.53zm24.16 25.18c8.86 0 13.99-5.5 13.99-14.59 0-9.05-5.13-14.5-13.69-14.5h-9.72V635h9.42zm-5.03-3.83v-21.43h5.06c6.36 0 9.64 3.81 9.64 10.67 0 6.9-3.28 10.75-9.91 10.75h-4.79zm22.14 3.83h4.25v-21.82h-4.25V635zm2.14-25.18c1.47 0 2.69-1.14 2.69-2.53 0-1.4-1.22-2.55-2.69-2.55s-2.68 1.16-2.68 2.55 1.21 2.53 2.68 2.53zm22.17 8.69c-.88-3.4-3.54-5.61-8.25-5.61-4.93 0-8.43 2.6-8.43 6.46 0 3.1 1.88 5.16 5.97 6.07l3.69.8c2.1.47 3.08 1.41 3.08 2.78 0 1.69-1.8 3-4.58 3-2.55 0-4.18-1.09-4.69-3.23l-4.11.62c.71 3.87 3.92 6.04 8.82 6.04 5.27 0 8.92-2.8 8.92-6.75 0-3.08-1.96-4.98-5.96-5.9l-3.47-.8c-2.4-.57-3.43-1.38-3.42-2.86-.01-1.67 1.8-2.87 4.22-2.87 2.64 0 3.86 1.47 4.36 2.93l3.85-.68zm12.28 16.93c5.16 0 8.5-3.1 8.97-7.34h-4.14a4.66 4.66 0 0 1-4.8 3.75c-3.59 0-5.91-3-5.91-7.76 0-4.67 2.36-7.61 5.91-7.61 2.7 0 4.35 1.7 4.8 3.75h4.14c-.46-4.4-4.05-7.33-9.01-7.33-6.15 0-10.13 4.63-10.13 11.29 0 6.58 3.84 11.25 10.17 11.25zm20.7 0c6.15 0 10.17-4.5 10.17-11.25 0-6.79-4.02-11.3-10.17-11.3s-10.17 4.51-10.17 11.3c0 6.75 4.02 11.25 10.17 11.25zm.01-3.56c-4.02 0-5.89-3.51-5.89-7.7 0-4.18 1.87-7.73 5.89-7.73 4 0 5.87 3.55 5.87 7.73 0 4.19-1.87 7.7-5.87 7.7zm12.9 3.12h4.25v-13.32c0-2.86 2.2-4.92 5.21-4.92.88 0 1.88.16 2.22.26v-4.06c-.43-.06-1.27-.1-1.81-.1a5.69 5.69 0 0 0-5.54 3.79h-.22v-3.47h-4.11V635zm20.74.43c3.98 0 5.54-2.43 6.31-3.82h.35V635h4.15v-29.1h-4.25v10.82h-.25c-.77-1.35-2.22-3.82-6.28-3.82-5.27 0-9.15 4.16-9.15 11.23 0 7.06 3.82 11.3 9.12 11.3zm.94-3.63c-3.8 0-5.77-3.33-5.77-7.7 0-4.34 1.93-7.6 5.77-7.6 3.7 0 5.69 3.03 5.69 7.6 0 4.58-2.03 7.7-5.69 7.7zm47.02-16.43c-.99-6.22-5.87-9.86-12.02-9.86-7.53 0-13.08 5.64-13.08 14.95 0 9.3 5.53 14.94 13.08 14.94 6.39 0 11.07-4 12.02-9.76l-4.43-.01c-.76 3.72-3.88 5.76-7.56 5.76-4.99 0-8.75-3.82-8.75-10.93 0-7.06 3.75-10.94 8.76-10.94 3.71 0 6.82 2.09 7.55 5.85h4.43zm12.1 20.07c6.15 0 10.17-4.5 10.17-11.25 0-6.79-4.02-11.3-10.17-11.3s-10.17 4.51-10.17 11.3c0 6.75 4.02 11.25 10.17 11.25zm.02-3.56c-4.02 0-5.9-3.51-5.9-7.7 0-4.18 1.88-7.73 5.9-7.73 3.99 0 5.86 3.55 5.86 7.73 0 4.19-1.87 7.7-5.86 7.7zm12.89 3.12h4.25v-13.45c0-2.94 2.06-4.99 4.47-4.99 2.36 0 4 1.57 4 3.94V635h4.23v-13.9c0-2.63 1.6-4.54 4.37-4.54 2.25 0 4.09 1.25 4.09 4.2V635h4.25v-14.63c0-4.99-2.78-7.47-6.73-7.47-3.14 0-5.5 1.5-6.55 3.83h-.23c-.95-2.38-2.95-3.83-5.86-3.83-2.89 0-5.03 1.43-5.94 3.83h-.27v-3.55h-4.08V635zm33.35 0h4.25v-13.45c0-2.94 2.06-4.99 4.48-4.99 2.35 0 3.99 1.57 3.99 3.94V635h4.23v-13.9c0-2.63 1.6-4.54 4.37-4.54 2.25 0 4.1 1.25 4.1 4.2V635h4.24v-14.63c0-4.99-2.78-7.47-6.73-7.47-3.14 0-5.5 1.5-6.55 3.83h-.23c-.95-2.38-2.95-3.83-5.86-3.83-2.89 0-5.03 1.43-5.94 3.83h-.27v-3.55h-4.08V635zm47.18-9.05a5.15 5.15 0 0 1-5.13 5.47c-2.63 0-4.45-1.9-4.45-4.87v-13.37h-4.24v13.88c0 5.41 2.96 8.22 7.15 8.22 3.29 0 5.52-1.73 6.52-4.06h.23V635h4.18v-21.82h-4.26v12.77zm12.21-3.9c0-3.48 2.13-5.47 5.09-5.47 2.88 0 4.63 1.89 4.63 5.05V635h4.24v-13.88c0-5.4-2.96-8.22-7.42-8.22-3.29 0-5.43 1.52-6.44 3.83h-.27v-3.55h-4.08V635h4.25v-12.96zm17.66 12.95h4.25v-21.82h-4.25V635zm2.15-25.18c1.46 0 2.68-1.14 2.68-2.53 0-1.4-1.22-2.55-2.68-2.55-1.48 0-2.69 1.16-2.69 2.55s1.21 2.53 2.69 2.53zm16 3.36h-4.48v-5.22h-4.25v5.22h-3.19v3.41h3.19v12.88c-.01 3.97 3.02 5.89 6.37 5.81a8.07 8.07 0 0 0 2.75-.45l-.76-3.5c-.29.05-.81.18-1.49.18-1.38 0-2.62-.46-2.62-2.92v-12h4.48v-3.4zm5.38 30c3.51 0 5.72-1.83 6.99-5.27l8.99-24.73h-4.56l-5.53 16.93h-.22l-5.53-16.93h-4.54l7.98 22.1-.53 1.45c-1.08 2.9-2.6 3.14-4.93 2.5l-1.02 3.48c.51.23 1.62.47 2.9.47zM974 631.63V638h5.57a12.65 12.65 0 0 1-5.57-6.37zm23.4-6.64a12 12 0 0 0-11.83-11.8c-5.03-.17-8.95 1.68-11.57 4.4v6.14c1.78-5.15 6.7-7.51 10.82-7.47 5.15.05 9.12 3.93 9.14 8.32.02 4.2-1.74 7.28-6.48 8.04-2.58.42-6.63-1.1-6.45-5 .1-2.02 1.66-3.16 3.46-3.08-1.76 2.36.57 4.09 2.22 3.74a3.66 3.66 0 0 0 2.86-3.65c0-1.48-1.39-3.88-4.85-3.8a6.95 6.95 0 0 0-7.07 7c-.12 4.8 4.37 7.95 8.98 8.01 6.76.09 10.77-4.35 10.76-10.85z"/><path fill="#fff" d="M974 603v10.07c3-2.31 6.93-3.8 11.57-3.8 9.93 0 16.23 6.94 16.23 15.7 0 6.08-2.84 10.65-7.28 13.03H1009v-35h-35z"/><path fill="#fff" d="M997.4 625a12 12 0 0 0-11.83-11.8c-5.03-.18-8.95 1.67-11.57 4.4v6.13c1.78-5.15 6.7-7.51 10.82-7.47 5.15.05 9.12 3.93 9.14 8.32.02 4.2-1.74 7.28-6.48 8.04-2.58.42-6.63-1.1-6.45-5 .1-2.02 1.66-3.16 3.46-3.08-1.76 2.36.57 4.09 2.22 3.74a3.66 3.66 0 0 0 2.86-3.65c0-1.48-1.39-3.88-4.85-3.8a6.95 6.95 0 0 0-7.07 7c-.12 4.8 4.37 7.95 8.98 8.01 6.76.09 10.77-4.35 10.76-10.85z"/><path fill="#fff" d="M974 603v10.07c3-2.31 6.93-3.8 11.57-3.8 9.93 0 16.23 6.94 16.23 15.7 0 6.08-2.84 10.65-7.28 13.03H1009v-35h-35z"/></svg>
